{
	"asset":{
		"version":"2.0",
		"generator":"Houdini GLTF 2.0 Exporter"
	},
	"accessors":[
		{
			"bufferView":0,
			"componentType":5121,
			"count":48,
			"type":"SCALAR",
			"min":[0
			],
			"max":[27
			]
		},
		{
			"bufferView":1,
			"componentType":5126,
			"count":28,
			"type":"VEC3",
			"min":[-7.21805573,0,-7.22849894
			],
			"max":[11.9561043,9.77260399,21.9554901
			]
		},
		{
			"bufferView":2,
			"componentType":5126,
			"count":28,
			"type":"VEC3",
			"min":[-0.456637204,0.885295928,-0.437652111
			],
			"max":[0,1,0.465028167
			]
		}
	],
	"buffers":[
		{
			"uri":"Ground_data.bin",
			"byteLength":720,
			"name":"main_buffer"
		}
	],
	"bufferViews":[
		{
			"buffer":0,
			"byteLength":48,
			"target":34963
		},
		{
			"buffer":0,
			"byteOffset":48,
			"byteLength":336,
			"target":34962
		},
		{
			"buffer":0,
			"byteOffset":384,
			"byteLength":336,
			"target":34962
		}
	],
	"nodes":[
		{
			"name":"geo1",
			"mesh":0
		}
	],
	"meshes":[
		{
			"primitives":[
				{
					"attributes":{
						"NORMAL":2,
						"POSITION":1
					},
					"indices":0
				}
			],
			"name":"null1"
		}
	],
	"scenes":[
		{
			"nodes":[0
			]
		}
	],
	"scene":0
}
