{
	"asset":{
		"version":"2.0",
		"generator":"Houdini GLTF 2.0 Exporter"
	},
	"accessors":[
		{
			"bufferView":0,
			"componentType":5123,
			"count":1035,
			"type":"SCALAR",
			"min":[0
			],
			"max":[363
			]
		},
		{
			"bufferView":1,
			"componentType":5126,
			"count":364,
			"type":"VEC3",
			"min":[-50,-0.5,-50
			],
			"max":[22.4292297,-0.5,50
			]
		},
		{
			"bufferView":2,
			"componentType":5126,
			"count":364,
			"type":"VEC2",
			"min":[-1,0
			],
			"max":[1,2
			]
		},
		{
			"bufferView":3,
			"componentType":5126,
			"count":364,
			"type":"VEC3",
			"min":[0,1,0
			],
			"max":[0,1,0
			]
		}
	],
	"buffers":[
		{
			"uri":"waterline_5_data.bin",
			"byteLength":13720,
			"name":"main_buffer"
		}
	],
	"bufferViews":[
		{
			"buffer":0,
			"byteLength":2070,
			"target":34963
		},
		{
			"buffer":0,
			"byteOffset":2072,
			"byteLength":4368,
			"target":34962
		},
		{
			"buffer":0,
			"byteOffset":6440,
			"byteLength":2912,
			"target":34962
		},
		{
			"buffer":0,
			"byteOffset":9352,
			"byteLength":4368,
			"target":34962
		}
	],
	"nodes":[
		{
			"name":"DEV_Grounds",
			"mesh":0
		}
	],
	"meshes":[
		{
			"primitives":[
				{
					"attributes":{
						"NORMAL":3,
						"TEXCOORD_0":2,
						"POSITION":1
					},
					"indices":0
				}
			],
			"name":"divide1"
		}
	],
	"scenes":[
		{
			"nodes":[0
			]
		}
	],
	"scene":0
}
